<svg height="22" viewBox="0 0 35 22" width="35" xmlns="http://www.w3.org/2000/svg"><path d="m418.845999 3123.00014c0-.26158-.159608-.61182-.319216-.78031l-9.079917-9.64741c-.423402-.43892-1.110587-.4899-1.604932-.04433-.441136.3968-.452225 1.17267-.044332 1.60493l7.288897 7.73211h-29.155045c-.627366 0-1.13499.50764-1.13499 1.13499s.507641 1.13499 1.13499 1.13499h29.155045l-7.288897 7.73212c-.407887.43227-.37907 1.18823.044332 1.60493.447788.43892 1.188221.40124 1.604932-.04433l9.079917-9.64741c.266013-.26158.314784-.5143.319216-.78031z" fill="#353636" fill-rule="evenodd" transform="translate(-384 -3112)"/></svg>